<svg xmlns="http://www.w3.org/2000/svg" viewBox="0 0 1400 900">
  <defs>
    <linearGradient id="bg" x1="0" y1="0" x2="1" y2="1">
      <stop offset="0" stop-color="#050a14" />
      <stop offset="0.35" stop-color="#071325" />
      <stop offset="0.7" stop-color="#0a0f24" />
      <stop offset="1" stop-color="#050a14" />
    </linearGradient>
    <linearGradient id="neon" x1="0" y1="1" x2="1" y2="0">
      <stop offset="0" stop-color="#22d3ee" stop-opacity="0.9" />
      <stop offset="0.55" stop-color="#7c3aed" stop-opacity="0.55" />
      <stop offset="1" stop-color="#60a5fa" stop-opacity="0.8" />
    </linearGradient>
    <pattern id="grid" width="48" height="48" patternUnits="userSpaceOnUse">
      <path d="M48 0H0V48" fill="none" stroke="#22d3ee" stroke-opacity="0.13" stroke-width="1" />
    </pattern>
    <filter id="blur" x="-20%" y="-20%" width="140%" height="140%">
      <feGaussianBlur stdDeviation="18" />
    </filter>
    <filter id="softGlow" x="-30%" y="-30%" width="160%" height="160%">
      <feGaussianBlur stdDeviation="8" result="blur" />
      <feColorMatrix
        type="matrix"
        values="
          1 0 0 0 0
          0 1 0 0 0
          0 0 1 0 0
          0 0 0 0.9 0"
      />
    </filter>
  </defs>

  <rect width="1400" height="900" fill="url(#bg)" />
  <rect width="1400" height="900" fill="url(#grid)" opacity="0.9" />

  <g filter="url(#blur)">
    <circle cx="270" cy="170" r="180" fill="#22d3ee" fill-opacity="0.25" />
    <circle cx="860" cy="220" r="240" fill="#7c3aed" fill-opacity="0.18" />
    <circle cx="1080" cy="720" r="260" fill="#60a5fa" fill-opacity="0.16" />
  </g>

  <g opacity="0.55">
    <path d="M-50 720 C 210 540, 380 610, 650 470 S 1100 280, 1450 420" fill="none" stroke="url(#neon)" stroke-width="2" />
    <path d="M-50 760 C 240 580, 430 650, 690 510 S 1150 320, 1450 470" fill="none" stroke="url(#neon)" stroke-width="1.5" stroke-opacity="0.7" />
  </g>

  <!-- Scanlines -->
  <g opacity="0.18">
    <rect y="0" width="1400" height="900" fill="none" stroke="#ffffff" stroke-opacity="0.22" stroke-width="1" />
    <path d="M0 24H1400M0 64H1400M0 104H1400M0 144H1400M0 184H1400M0 224H1400M0 264H1400M0 304H1400M0 344H1400M0 384H1400M0 424H1400M0 464H1400M0 504H1400M0 544H1400M0 584H1400M0 624H1400M0 664H1400M0 704H1400M0 744H1400M0 784H1400M0 824H1400M0 864H1400" fill="none" stroke="#dbeafe" stroke-width="1" />
  </g>
</svg>

